<?xml version="1.0" encoding="utf-8"?>
<!-- Generator: Adobe Illustrator 18.0.0, SVG Export Plug-In . SVG Version: 6.00 Build 0)  -->
<!DOCTYPE svg PUBLIC "-//W3C//DTD SVG 1.1//EN" "http://www.w3.org/Graphics/SVG/1.1/DTD/svg11.dtd">
<svg version="1.1" id="Layer_1" xmlns="http://www.w3.org/2000/svg" xmlns:xlink="http://www.w3.org/1999/xlink" x="0px" y="0px"
	 viewBox="0 0 1700 1400" enable-background="new 0 0 1700 1400" xml:space="preserve">
<g>
	<rect fill="#FFFFFF" width="1700" height="1400"/>
	<g>
		<g>
			<path fill="#F4F2F7" d="M1568.9,771.1c-50.8-61.2-108.4-126.1-107.4-201.5c1.5-106.9,121.9-196,108.9-302.3
				c-6.5-53.5-47-99.9-95.4-133.5c-142.7-99-366.7-95.7-505.5,7.4c-44.2,32.8-80.6,74.5-131.7,98.7
				c-52.2,24.7-113.9,28.4-173.3,28.3s-119.8-3.4-177.5,9.2c-57.6,12.6-113.7,44.6-132.7,93.5c-12.7,32.5-7.7,68.4-17.9,101.5
				c-30.3,97.8-171.7,131.9-241.9,212.8c-65,75-58,185.1-0.7,264.6s156.4,131,260,157.9c2.6,0.7,5.2,1.3,7.9,2
				c-1.8-0.8-3.6-1.6-5.4-2.5c-43.8-20.6-84.6-50.6-109.4-92.1s-31.3-95.8-8.9-138.6c25.9-49.4,82.3-73.9,119.3-115.6
				c43.9-49.5,56.7-118.2,73.6-182.2S474.8,446.6,533,415.2c82.7-44.7,184.6,4.8,278-6c60.6-7,115.1-39.3,166-73
				c50.9-33.7,101.5-70.1,160.1-87.3c58.6-17.2,128.3-11.2,171.5,31.9c58.9,58.6,46.4,156,24.3,236.1s-48.5,170.2-7.1,242.3
				c41.9,73.1,141.2,101.8,175,179c26.6,60.7,0.2,130.7-48.2,178.1c31.2-7.1,61.5-16.4,89.7-30c48.3-23.3,89.9-60.8,103.9-107.2
				C1668.2,906.2,1619.7,832.3,1568.9,771.1z"/>
			<path fill="none" d="M674.8,1143.9c-105.3-4.5-211.8-9.1-313-34.2c88.1,39.7,187.5,45.3,284.1,50.2
				c165,8.4,330.1,16.7,495.1,25.1c87.7,4.4,179.9,8,258.6-30.8c19.3-9.5,37.3-22.5,53-37.9c-22.4,5.1-45.3,9-68.1,12.4
				C1150.8,1163.6,911.7,1153.9,674.8,1143.9z"/>
			<path fill="#DFDAE8" d="M1500.9,938.2c-33.8-77.2-133.1-105.9-175-179c-41.3-72.1-14.9-162.1,7.1-242.3s34.6-177.5-24.3-236.1
				c-43.2-43.1-112.9-49-171.5-31.9c-58.6,17.2-109.2,53.6-160.1,87.3c-50.9,33.7-105.4,66-166,73c-93.4,10.8-195.3-38.7-278,6
				c-58.2,31.4-85.2,99.6-102.1,163.5s-29.7,132.7-73.6,182.2c-37,41.7-93.4,66.3-119.3,115.6c-22.5,42.9-15.9,97.1,8.9,138.6
				s65.6,71.6,109.4,92.1c1.8,0.8,3.6,1.6,5.4,2.5c101.3,25.1,207.7,29.8,313,34.2c236.9,10,476,19.7,709.7-15.3
				c22.8-3.4,45.7-7.3,68.1-12.4C1501.1,1068.9,1527.5,998.9,1500.9,938.2z"/>
		</g>
		<path fill="#837ACB" d="M1455.4,474.3c-117-85.7-291.6-100.8-389.9-102.2c-21-0.3-40.7,9.9-52.5,27.3
			c-30.5,44.8-64.9,89.3-93.4,134.2c-23.9,37.6-49.6,76.9-88.9,97.8c-45.2,24-99.6,19.3-150.5,14.1c69.7,89.4,165.8,164.8,272.9,202
			c101,35.1,213.3-53.5,274.8-140.9c32-45.5,52.5-98.1,83.6-144.2C1342.6,516.1,1399.9,477.4,1455.4,474.3z"/>
		<g>
			<path fill="#46C9B3" d="M1040.3,437c9.7-1.4,19.5,1.9,29.2,2.9c15.2,1.5,30.9-3.1,42.9-12.5c8.4-6.6,14.8-15.5,18.7-25.4
				c-16.1-0.4-31.8-2.9-46-10.4c-7.7-4.1-15.5-9.7-24.2-8.6c-7.7,1-13.6,7.1-18.8,12.9c-15.8,17.5-31.8,35.2-43.3,55.7
				c5.8-0.9,11.5-2.5,16.9-4.8C1023.9,443.3,1031.5,438.3,1040.3,437z"/>
			<path fill="#46C9B3" d="M1218,440.9c-6.5,1.9-14.2,3.7-16.9,9.9c-3,6.8,1.9,14.3,6.5,20.1c5.6,7.1,11.4,14.4,19,19.3
				c7.6,4.9,17.5,7.3,25.9,3.8c10.6-4.5,16.1-16.8,26.7-21.4c7.4-3.3,16.1-2,23.9-4.1c12.2-3.3,20.8-15.6,21.3-28.1
				c-2-0.3-4-0.3-5.9,0c-5.2,0.7-10.2,2.7-15.4,3.1c-18,1.4-31-15-45.5-26.4C1246.7,428.2,1232.9,436.6,1218,440.9z"/>
			<path fill="#3DBBA4" d="M1332.7,444.9c-2-2.7-5.1-4-8.4-4.5c-0.5,12.5-9.1,24.8-21.3,28.1c-7.8,2.1-16.5,0.9-23.9,4.1
				c-10.5,4.6-16.1,17-26.7,21.4c-8.4,3.5-18.3,1.2-25.9-3.8c-7.6-4.9-13.4-12.2-19-19.3c-4.6-5.8-9.5-13.3-6.5-20.1
				c2.7-6.2,10.4-8.1,16.9-9.9c15-4.3,28.7-12.7,39.5-23.8c-1.2-0.9-2.4-1.9-3.6-2.7c-23.6-16.7-54.9-16.1-83.7-14
				c-12.9,0.9-26.1,2-39,1.7c-3.9,9.9-10.4,18.8-18.7,25.4c-12,9.4-27.7,14-42.9,12.5c-9.8-1-19.5-4.3-29.2-2.9
				c-8.7,1.3-16.4,6.3-24.5,9.8c-5.4,2.3-11.1,3.9-16.9,4.8c-0.7,1.2-1.4,2.4-2,3.7c-11.6,22.1-17.5,48.3-10.7,72.3
				c5.6,19.9,19.1,36.4,32.2,52.3c23.3,28.1,48.5,57.7,83.4,68.4c29.7,9.1,62.5,2.8,90.3-11.2c25.9-13,48.3-32.5,66.5-55.1
				c16.5-20.5,29.6-43.4,42.7-66.3c9.5-16.6,19-33.3,28.5-49.9C1333.5,459.4,1337.2,450.9,1332.7,444.9z"/>
		</g>
		<ellipse fill="#46C9B3" cx="850" cy="1114.8" rx="658.6" ry="223.5"/>
		<ellipse fill="#3DBBA4" cx="850" cy="1078.7" rx="534.2" ry="181.3"/>
		<g>
			<path fill="#9186E4" d="M779.4,855.5c-15.4-7.4-29.7-17.3-45.7-23.4c-16-6.1-34.9-8-49.7,0.5c-19,11-25.4,34.7-32.1,55.6
				c-11.7,36.1-29.5,70.2-52.2,100.6c3.8,1,7.5,2.1,11.3,3.2c14.8,4.7,29.7,12.2,37.9,25.4c11.2,17.9,9.5,44.8,27.7,55.4
				c12.6,7.3,28.9,2.8,42.6,7.6c15.8,5.6,24.5,22,32.7,36.7s21.5,30.7,38.2,32.4l36.4-25.1l60.8-252.5
				C850.4,875.4,812.6,871.5,779.4,855.5z"/>
			<path fill="#837ACB" d="M636,672.8l-98.9,271.6c2.5,15.3,15.4,27.1,29.5,33.8c10.5,4.9,21.9,7.7,33.2,10.7
				c22.7-30.4,40.5-64.5,52.2-100.6c6.8-20.9,13.1-44.6,32.1-55.6c14.8-8.6,33.7-6.7,49.7-0.5c16,6.1,30.2,16,45.7,23.4
				c33.2,15.9,71,19.9,107.8,16.4l22.7-94.5L636,672.8z"/>
		</g>
		<path fill="#CE523A" d="M874.7,602l166.3-87.5l34-52.7c-36-1.3-78.7,9.1-197.4,92.9L874.7,602z"/>
		<g>
			<path fill="#4F444F" d="M767.4,631.5c10.6-12,31.1-20.7,49.4-22.2l-26.7-13.6c-17.7,0.1-39.3,8.5-49.9,20.5
				c-12.6,14.3-18.2,33.7-18.1,52.7c0.1,8.5,1.3,16.9,3.5,25.1c9.2,8.3,18,16.9,26.5,25.9c-2.9-9.9-4.5-20.1-4.6-30.4
				C747.3,668.5,753.6,647.1,767.4,631.5z"/>
			<g>
				<path fill="#3F333F" d="M763.5,660.9c7.8,11.8-1.1,28.7,5.2,41.3c5.1,10.1,17.8,13.5,29.1,13.9s23.2-0.8,33.3,4.3
					c10,5,16.3,15.4,25.7,21.4c13.7,8.7,31.6,6.9,47.2,2.1c15.5-4.8,30.4-12.3,46.6-14c7-0.8,14.1-0.4,20.9,1.1l-1.8-85.6
					l-104.2-14.8l-48.8-21.3c-18.2,1.6-38.8,10.3-49.4,22.2c-5.7,6.5-10.1,14-13.4,22C757.8,655.1,761.2,657.5,763.5,660.9z"/>
				<path fill="#261F27" d="M950.7,729.9c-16.2,1.8-31.1,9.2-46.6,14c-15.5,4.8-33.5,6.6-47.2-2.1c-9.4-6-15.7-16.4-25.7-21.4
					c-10.1-5.1-22-3.9-33.3-4.3s-24-3.8-29.1-13.9c-6.3-12.6,2.5-29.5-5.2-41.3c-2.3-3.4-5.6-5.8-9.5-7.4
					c-4.5,11.3-6.6,23.7-6.5,35.9c0.1,10.3,1.7,20.6,4.6,30.4c3,3.1,5.9,6.3,8.8,9.5c18,20.2,34.3,42.2,53.6,61.2
					c1.6,1.5,3.4,2.8,4.8,4.6c50.5,65,128.6,22.4,153.2-25.5l-0.8-38.6C964.7,729.5,957.6,729.2,950.7,729.9z"/>
			</g>
		</g>
		<g>
			<path fill="#261F27" d="M760.9,729.4c-12.1-13.5-24.9-26.3-38.5-38.3c4.8,24,3,49.4-5.4,72.4c33.6,9.7,70.4,19.8,97.5,27.1
				C795.1,771.5,778.9,749.6,760.9,729.4z"/>
			<path fill="#3F333F" d="M722.3,691c-7.1-6.3-14.5-12.4-22-18.2c3.8,27.7-1,56.7-13.8,81.6c9.6,2.9,19.9,6,30.5,9
				C725.3,740.4,727.2,715,722.3,691z"/>
		</g>
		<path fill="#3F333F" d="M1326.6,251.4c-7.9,14.5-24.4,23.4-40.9,23.5c-16.5,0.2-32.6-7.9-43.5-20.2c-8.8-9.9-14.6-22.9-14.1-36.1
			c0.8-19.7,16.4-37.4,35.6-42.2c19.1-4.8,40.3,2.6,53.7,17.1C1331.5,208.9,1336.6,233.1,1326.6,251.4z"/>
		<path fill="#46C9B3" d="M1279.5,266.5c1.7,6.1,2.6,12.7,1.1,18.9c-1.5,6.2-5.5,12-11.5,14.4c-8.1,3.2-17.2-0.6-24.6-5.2
			c-26.9-16.8-45.6-46.2-49.3-77.7c17.5-4.2,36.7-1.4,52.2,7.8S1274.7,249.1,1279.5,266.5z"/>
		<path fill="#3F333F" d="M1148.6,388.4c-14.1-14.4-32.9-22.8-49.8-33.7c-16.9-10.8-33.2-25.9-36.5-45.7c-3-17.6,3.2-32.1,18-41.8
			c7.6-5,16-8.8,23.1-14.5c12.3-10,19.5-24.8,29.5-37c28.1-34.4,77.4-23.5,104.6,5.7c13.9,14.9,23.7,33.1,33.3,51.1
			c9.7,18.1,19.7,37.3,18.9,57.8c-0.8,21.3-13.1,40.2-25,57.9c-8.2,12.3-16.7,24.8-28.3,33.9c-11.7,9.1-27.3,14.5-41.5,10.4
			C1174.1,426.4,1163.8,403.8,1148.6,388.4z"/>
		<g>
			<path fill="#FF4F68" d="M963.4,627.9c9.4,2.5,18.1,7.5,27.8,8.3c9.7,0.8,21.1-4.9,21.6-14.5c0.7-12.4-16.4-21.7-13.3-33.8
				c2.1-8.3,12.9-11.3,21.3-9.6c8.4,1.7,16.1,6.4,24.7,7.4c11.8,1.4,23.1-4.3,33.6-9.9c14.7-7.8,29.5-15.7,43-25.6
				c9.8-7.2,18.8-15.4,29.3-21.5c21.8-12.6,49.2-14.1,72.6-5.1c-14.4-20.8-35.7-37.5-43.6-61.8l-31-10.1
				c-23.4,9.6-49.2,13.2-74.3,10.2c-25.9,7.8-49.8,19.5-75.7,27.3c-9.5,2.9-19.6,6.1-25.9,13.8c-5.4,6.6-7.2,15.7-6.5,24.2
				s3.5,16.8,6.3,24.9c-27.3,35.3-65.3,64.2-107.6,78.5c6.7,2.2,13.2,4.9,19.6,7.9C911.4,633.5,937.7,621.1,963.4,627.9z"/>
			<path fill="#EA4057" d="M1151.3,528.6c-10.5,6.1-19.5,14.3-29.3,21.5c-13.4,9.9-28.2,17.8-43,25.6c-10.5,5.6-21.8,11.3-33.6,9.9
				c-8.5-1-16.2-5.7-24.7-7.4c-8.4-1.7-19.2,1.3-21.3,9.6c-3.1,12.1,14,21.3,13.3,33.8c-0.5,9.7-11.9,15.3-21.6,14.5
				c-9.7-0.8-18.4-5.8-27.8-8.3c-25.7-6.8-52,5.6-78.3,10.5c21.9,10.4,41.6,25.4,56.2,44.6c18.8,24.8,29.8,55.5,31.1,86.6
				c76.2-74.7,170.5-169.3,263.3-222c-2.4-8.9-6.7-16.7-11.8-24.1C1200.6,514.5,1173.1,516,1151.3,528.6z"/>
		</g>
		<path fill="#E9846C" d="M1003.3,486.8c7.8,14.6,15.9,20.5,30.3,28.8c4.6,8.7,8.6,17.5,12.7,26.3c1.6,3.5,6.9,1.9,6.3-1.9
			c-1.7-11.8-3.8-24.7-4.1-33.5c6.7,7.3,11.8,24,17.8,38.3c2,4.9,9.4,2.7,8.4-2.5c-2.8-15.1-8.1-31.8-12.1-42.7
			c9.6,8.3,19.4,25.2,28,39.7c2.3,3.9,8.2,1.2,6.8-3.1c-5.8-17.6-13-34.2-17.8-42.6c6.6,7.6,16.4,20.2,24.9,30.9
			c1.9,2.4,5.7,0.1,4.5-2.7c-13.4-29.3-37.9-53.5-67.6-66.2c-8.5-3.6-17.7-6.4-26.9-5.6c-9.2,0.8-17.7,5-26,9.2
			c-39.2,19.7-78.5,39.4-116.6,61c-14.7,8.3-29.8,17.5-38.8,31.9c-9,14.4-9.5,35.4,3.3,46.5c10.2,8.9,26,8.8,38.4,3.4
			c12.4-5.4,22.3-15.2,31.9-24.8C937.7,546,970.7,513.5,1003.3,486.8z"/>
		<g>
			<path fill="#9186E4" d="M961.6,439.6c0,7-18.8,12.7-42,12.7s-42-5.7-42-12.7l0,0V535h0c0.2,7,18.9,12.6,42,12.6s41.8-5.6,42-12.6
				h0V439.6L961.6,439.6z"/>
			<ellipse fill="#5D50B9" cx="919.6" cy="439.6" rx="42" ry="12.7"/>
		</g>
		<g>
			<path fill="#CE523A" d="M1140.8,473c8.1-1.8,15.2-6.5,22.1-11.2c6.6-4.5,13.2-9,19.8-13.5c0.4-24.4,5.4-48.6,15.3-70.9
				c-20.3,8.7-40.9,17.2-61.2,25.8c6.6,9.5,9.3,21.7,7.5,33.1c-1.9,11.4-8.3,22.1-17.6,29.1c-1.7,1.3-3.5,2.6-5.3,4
				C1126.7,473.4,1134.2,474.4,1140.8,473z"/>
			<path fill="#E9846C" d="M1162.9,461.7c-6.9,4.7-14,9.5-22.1,11.2c-6.6,1.4-14.1,0.4-19.3-3.6c-6.1,4.8-11.7,10.3-11.5,17.6
				c0.2,9.4,8.2,18.1,17.6,19.1c8,0.8,15.5-3.2,22.5-7c7.2-4,15.1-7.5,22.8-11.2c7.1-3.4,11.3-10.8,10.6-18.6
				c-0.6-6.9-0.9-13.9-0.8-20.8C1176.1,452.8,1169.5,457.3,1162.9,461.7z"/>
		</g>
		<g>
			<path fill="#FC9E86" d="M1012.7,709.4c10.3-1.3,21-2.8,29.4-8.9c11.8-8.6,16.1-24.2,26.6-34.3c19.4-18.7,54.7-14.2,71.5-35.3
				c7-8.8,9.3-20.7,16.3-29.4c8.6-10.7,22.6-15.1,35.6-19.6c13-4.4,26.8-10.4,33.3-22.5c4.5-8.4,4-19-0.4-27.5
				c-2.6-2.1-5.5-3.9-8.6-5.1c-13.3-5.4-28.7-2.9-41.6,3.3s-23.8,15.9-34.5,25.4c-44.3,39.5-88.6,79-132.9,118.5
				c-17.6-57.8-26.8-119.6-27.6-180c-0.1-5.7-0.1-11.6-2.1-17c-2-5.4-10.3-11.9-16-12.6V485l-55.4-22.6c-1-0.4-2.1-0.7-3.3-0.7
				c-6,0.1-6.3,6.4-3.9,10.1c1.9,2.9,5,4.7,7.3,7.2c7.4,7.9,6.8,20.2,6,31c-0.8,10.8-0.7,23.3,7.5,30.4c5.1,4.4,12.3,5.6,17.4,9.9
				c7.5,6.3,8.7,17.2,9.3,27c1.2,18.6,6.6,74.9,11,122.7c6.9,5,14.6,8.6,22.9,10.2C991.2,712.1,1002,710.8,1012.7,709.4z"/>
			<path fill="#E9846C" d="M1224.8,532c4.4,8.5,4.9,19,0.4,27.5c-6.5,12.1-20.3,18-33.3,22.5c-13,4.4-27,8.8-35.6,19.6
				c-7,8.8-9.3,20.6-16.3,29.4c-16.7,21.2-52.1,16.6-71.5,35.3c-10.5,10.1-14.8,25.8-26.6,34.3c-8.4,6.1-19.1,7.6-29.4,8.9
				c-10.7,1.3-21.5,2.7-32.1,0.7c-8.3-1.6-16-5.2-22.9-10.2c0,0.3,0.1,0.6,0.1,0.9c2.9,31.1,37.7,48,64,31.1
				c68.4-43.9,134.5-92,195.6-145.3c8.2-7.2,16.8-15.2,19.1-25.9C1238.8,550.1,1233.5,539,1224.8,532z"/>
		</g>
		<path fill="#E9846C" d="M1246.6,372.4c1,6.8-1.1,13.9-5.7,19c-4.5,5.1-11.4,8.1-18.2,8c-5.3-0.1-11.2-2.9-12.2-8.1
			c-0.5-2.6,0.4-5.2,1.3-7.7c2.2-5.7,5.1-11.2,8.6-16.2c2.7-4,6.2-7.9,10.9-8.8c3.8-0.7,7.8,0.8,10.5,3.5
			C1244.5,364.9,1246.1,368.6,1246.6,372.4z"/>
		<g>
			<path fill="#FC9E86" d="M1164.9,379.4c1.7-9.1,6.6-17.2,11.5-25.1c3.1-5.1,6.3-10.4,8.7-15.9c-1.3-1-2.7-1.9-4.1-2.8
				c-9.7-6.3-20.4-11-30.2-17.3c-9.7-6.3-18.8-14.6-22.8-25.5c-6.7,8.2-15.4,14.7-25,19.2c-10.5,38.1-9.3,80.4,3.3,117.7
				c2.6,7.7,6.1,15.7,12.4,19.3c6.2,3.7,13.7,2.2,20.5,0.3c12.4-3.4,24.7-7.9,36.2-14.3c-0.7-4-1.8-7.9-2.9-11.7
				C1168,409,1162.1,394.2,1164.9,379.4z"/>
			<path fill="#E9846C" d="M1185.1,338.4c-2.3,5.5-5.5,10.8-8.7,15.9c-4.8,7.9-9.7,16-11.5,25.1c-2.8,14.8,3.1,29.6,7.4,44
				c1.1,3.8,2.2,7.7,2.9,11.7c12-6.6,23.1-15.1,32.4-26.2c5.8-6.9,10.8-15.1,14.5-23.8C1214.3,366.6,1201.5,350.1,1185.1,338.4z"/>
		</g>
		<g>
			<path fill="#E9846C" d="M526,954.1c10.1-18.7,30.2-31.3,36.7-51.5c6.2-19.4-1.8-40.8,2.6-60.7c6.6-29.9,39.7-50.3,41.2-80.8
				c0.4-8.9-2-17.7-2.9-26.5s0.1-18.6,6.1-25.2c6.4-7,17.1-8.7,26.5-6.8c9.3,1.9,17.8,6.6,26.4,10.7c11.2,5.3,22.8,9.5,34.8,12.6
				c4.4-17.2,5.5-35.3,3-52.9c-23-17.8-47.8-33.4-74-46.3h-2.7c-33.7,0-63.3,22.5-72.2,55c-8.7,31.6-20.6,74-34,119.7
				c-35.5,121.2-81.2,265.3-105,291c-40,43.2-62.9,90.5-96.7,138.6c29.5,7.1,57.7,0.6,79.5-20.5c8.8-8.6,15.9-18.8,24.7-27.4
				c16.4-15.9,39-25.3,61.9-25.6c8.6-21.8,10.1-44.9-1.9-65.1c4.6-14.6,10.3-28.5,16.8-42.1c4.3-16.5,11.8-32.1,16.1-48.7
				C517,985.6,518.1,968.6,526,954.1z"/>
			<path fill="#CE523A" d="M697.3,725.7c-12-3.1-23.6-7.3-34.8-12.6c-8.6-4.1-17.1-8.8-26.4-10.7c-9.3-1.9-20.1-0.2-26.5,6.8
				c-6,6.6-7,16.4-6.1,25.2s3.3,17.6,2.9,26.5c-1.5,30.6-34.6,50.9-41.2,80.8c-4.4,19.9,3.7,41.3-2.6,60.7
				c-6.5,20.2-26.6,32.8-36.7,51.5c-7.8,14.5-9,31.5-13.1,47.5c-4.3,16.5-11.8,32.1-16.1,48.7c21.7-45.1,52.5-85.6,80.6-127.9
				c36.5-55,68.3-118.3,61.4-184c9.8,4.1,27.1,9.8,47.8,16.1C691.2,745.3,694.8,735.7,697.3,725.7z"/>
		</g>
		<g>
			<path fill="#FC9E86" d="M707.1,576.4c-11.8-1.5-25,2.6-34.8-4c-9.9-6.7-11.2-21-19.5-29.5c-7.9-8.1-20.6-9.3-31.8-7.9
				c-22.1,2.8-43,14.4-57.1,31.6c-16.5,20.1-23.9,47-38.5,68c-36.8,96.8-81.7,210.5-99.4,237.6c-16.6,25.3-37.8,51.6-56,75.7
				c-18.6,24.5-37.5,49.8-45.8,79.5c23.4-1.8,44.6-19.4,61.5-35.7c16.9-16.3,34.2-34.1,56.8-40.5c9.7-2.7,20.6-3.6,27.9-10.4
				c11.3-10.6,8-28.9,7.5-44.4c-1.1-35.1,17-68.2,39.6-95.2c13.4-45.7,25.3-88.1,34-119.7c9-32.5,38.5-55,72.2-55h2.7
				c36,17.7,69.4,40.6,99.2,67.4c-2.2-8.2-3.4-16.6-3.5-25.1c-0.2-19,5.5-38.5,18.1-52.7c2.7-3.1,6.2-6,10.1-8.5
				C737.5,593.9,725.1,578.8,707.1,576.4z"/>
			<path fill="#E9846C" d="M653.7,525.8c-39.1-20-87-1.4-102.3,39.7c-7.7,20.8-16.6,44.3-26,69.1c14.6-21,22-47.9,38.5-68
				c14.1-17.2,35-28.8,57.1-31.6c11.2-1.4,23.9-0.2,31.8,7.9c8.3,8.5,9.6,22.8,19.5,29.5c9.8,6.6,23,2.5,34.8,4
				c18.1,2.4,30.5,17.5,43.3,31.2c11.3-7.3,26.6-11.9,39.8-12L653.7,525.8z"/>
		</g>
		<g>
			<path fill="#5D50B9" d="M915.4,1097c25.9-20.5,63.4-30.4,76.1-60.9c15.6-37.6-17.5-83.6,0.8-120c10.9-21.7,37-31.7,61.3-33
				s48.5,4.2,72.8,4.1c24.3-0.1,50.8-7.1,64.8-27c25.4-36-3.4-90.2,18.6-128.4c21-36.4,76.5-38.8,99.9-73.6
				c26.2-39.1-0.9-99.2,29.4-135.3c22.4-26.8,61.9-24,97.9-28.3c5.9-6.8,12.1-13.6,18.4-20.3c-96.2-21.1-202.8-4.6-304.6,229.4
				c-9.9,22.7-31.8,37.9-56.5,39.1l-137,6.5c-52.4,2.5-95.5,42.2-102,94.3c-12.9,101.5-36.6,258.6-65.1,306
				c21.8,20.1,56.5,22.7,88,17.3C881,1139.8,894.1,1113.9,915.4,1097z"/>
			<path fill="#4841A5" d="M1339.1,523c-30.2,36-3.2,96.2-29.4,135.3c-23.3,34.9-78.9,37.3-99.9,73.6c-22,38.2,6.8,92.4-18.6,128.4
				c-14,19.9-40.5,26.9-64.8,27c-24.3,0.1-48.5-5.4-72.8-4.1s-50.4,11.2-61.3,33c-18.3,36.4,14.8,82.4-0.8,120
				c-12.6,30.5-50.1,40.4-76.1,60.9c-21.3,16.8-34.4,42.8-37.4,69.7c9.3-1.6,18.3-3.9,26.5-6.7c36.4-12.2,72.3-31,110.6-29.1
				c39.2,2,76.4,25.7,115.3,20.4c21.3-2.9,40.3-14.2,60.3-22.1c20-7.9,51-11.9,69.5-1c0-243.2,14-447.2,176.6-633.7
				C1400.9,499,1361.5,496.2,1339.1,523z"/>
		</g>
	</g>
</g>
</svg>
